<?xml version="1.0" encoding="UTF-8" standalone="no"?>
<!DOCTYPE svg PUBLIC "-//W3C//DTD SVG 1.1//EN" "http://www.w3.org/Graphics/SVG/1.1/DTD/svg11.dtd">
<svg width="80px" height="100%" viewBox="0 0 1287 739" version="1.1" xmlns="http://www.w3.org/2000/svg" xmlns:xlink="http://www.w3.org/1999/xlink" xml:space="preserve" xmlns:serif="http://www.serif.com/" style="fill-rule:evenodd;clip-rule:evenodd;stroke-linecap:round;stroke-linejoin:round;stroke-miterlimit:1.5;">
    <g transform="matrix(1,0,0,1,-2815,-5629)">
        <g transform="matrix(0.369991,0,0,0.398308,2116.7,3698.93)">
            <path d="M3630.94,6699.73L1889.76,6699.73L1889.76,5947.9L2007.94,5947.9L2007.94,5710.97L2253.64,5710.97L2253.64,5829.43L2291.9,5829.43L2291.9,5424.3L2443.23,5424.3L2443.23,5761.52L2478.09,5761.52L2478.09,5200.8L2826.67,5200.8L2826.67,5699.92L2926.14,5699.92L2926.14,5513.54L3033.26,5513.54L3033.26,5350.85L3222.85,5350.85L3222.85,5848.39L3292.57,5848.39L3292.57,5699.92L3508.51,5699.92L3508.51,5947.9L3630.94,5947.9L3630.94,6699.73ZM3153.99,5464.57L3153.99,5369.8L3113.18,5369.8L3113.18,5464.57L3153.99,5464.57ZM3096.18,5464.57L3096.18,5369.8L3055.37,5369.8L3055.37,5464.57L3096.18,5464.57ZM3418.39,5814.43L3418.39,5719.66L3377.59,5719.66L3377.59,5814.43L3418.39,5814.43ZM3360.58,5814.43L3360.58,5719.66L3319.77,5719.66L3319.77,5814.43L3360.58,5814.43ZM3096.18,5579.88L3096.18,5485.11L3055.37,5485.11L3055.37,5579.88L3096.18,5579.88ZM3360.58,5929.73L3360.58,5834.96L3319.77,5834.96L3319.77,5929.73L3360.58,5929.73ZM2715.29,5333.48L2715.29,5238.71L2674.48,5238.71L2674.48,5333.48L2715.29,5333.48ZM2639.63,5333.48L2639.63,5238.71L2598.82,5238.71L2598.82,5333.48L2639.63,5333.48ZM2562.26,5333.48L2562.26,5238.71L2521.45,5238.71L2521.45,5333.48L2562.26,5333.48ZM2639.63,5462.99L2639.63,5368.22L2598.82,5368.22L2598.82,5462.99L2639.63,5462.99ZM3267.06,6099.53L3267.06,6004.76L3226.25,6004.76L3226.25,6099.53L3267.06,6099.53ZM2562.26,5462.99L2562.26,5368.22L2521.45,5368.22L2521.45,5462.99L2562.26,5462.99ZM3208.4,6099.53L3208.4,6004.76L3167.59,6004.76L3167.59,6099.53L3208.4,6099.53ZM2562.26,5590.14L2562.26,5495.37L2521.45,5495.37L2521.45,5590.14L2562.26,5590.14ZM3208.4,6214.83L3208.4,6120.06L3167.59,6120.06L3167.59,6214.83L3208.4,6214.83ZM2426.23,5538.81L2426.23,5444.83L2385.42,5444.83L2385.42,5538.81L2426.23,5538.81ZM2348.86,5538.81L2348.86,5444.83L2308.05,5444.83L2308.05,5538.81L2348.86,5538.81ZM2680.43,5885.51L2680.43,5790.74L2639.63,5790.74L2639.63,5885.51L2680.43,5885.51ZM2603.07,5885.51L2603.07,5790.74L2562.26,5790.74L2562.26,5885.51L2603.07,5885.51ZM2348.86,5669.12L2348.86,5574.35L2308.05,5574.35L2308.05,5669.12L2348.86,5669.12ZM2845.37,6232.99L2845.37,6138.22L2804.56,6138.22L2804.56,6232.99L2845.37,6232.99ZM2603.07,6015.02L2603.07,5920.25L2562.26,5920.25L2562.26,6015.02L2603.07,6015.02ZM2786.71,6232.99L2786.71,6138.22L2745.9,6138.22L2745.9,6232.99L2786.71,6232.99ZM2786.71,6347.5L2786.71,6252.74L2745.9,6252.74L2745.9,6347.5L2786.71,6347.5ZM2151.62,5834.17L2151.62,5739.4L2110.81,5739.4L2110.81,5834.17L2151.62,5834.17ZM2293.6,5997.65L2293.6,5902.88L2252.79,5902.88L2252.79,5997.65L2293.6,5997.65ZM2081.05,5834.17L2081.05,5739.4L2040.25,5739.4L2040.25,5834.17L2081.05,5834.17ZM2235.79,5997.65L2235.79,5902.88L2194.98,5902.88L2194.98,5997.65L2235.79,5997.65ZM2235.79,6112.95L2235.79,6018.18L2194.98,6018.18L2194.98,6112.95L2235.79,6112.95Z" style="fill-rule:nonzero;"/>
        </g>
        <g transform="matrix(0.369991,0,0,0.389938,2760.92,3742.43)">
            <path d="M3630.94,6731.99L1889.76,6731.99L1889.76,5964.02L2007.94,5964.02L2007.94,5722.01L2253.64,5722.01L2253.64,5843.01L2291.9,5843.01L2291.9,5429.18L2443.23,5429.18L2443.23,5773.64L2478.09,5773.64L2478.09,5200.88L2826.67,5200.88L2826.67,5710.71L2926.14,5710.71L2926.14,5520.33L3033.26,5520.33L3033.26,5354.16L3222.85,5354.16L3222.85,5862.37L3292.57,5862.37L3292.57,5710.71L3508.51,5710.71L3508.51,5964.02L3630.94,5964.02L3630.94,6731.99ZM3153.99,5470.32L3153.99,5373.52L3113.18,5373.52L3113.18,5470.32L3153.99,5470.32ZM3096.18,5470.32L3096.18,5373.52L3055.37,5373.52L3055.37,5470.32L3096.18,5470.32ZM3418.39,5827.68L3418.39,5730.88L3377.59,5730.88L3377.59,5827.68L3418.39,5827.68ZM3360.58,5827.68L3360.58,5730.88L3319.77,5730.88L3319.77,5827.68L3360.58,5827.68ZM3096.18,5588.1L3096.18,5491.29L3055.37,5491.29L3055.37,5588.1L3096.18,5588.1ZM3360.58,5945.46L3360.58,5848.66L3319.77,5848.66L3319.77,5945.46L3360.58,5945.46ZM2715.29,5336.41L2715.29,5239.61L2674.48,5239.61L2674.48,5336.41L2715.29,5336.41ZM2639.63,5336.41L2639.63,5239.61L2598.82,5239.61L2598.82,5336.41L2639.63,5336.41ZM2562.26,5336.41L2562.26,5239.61L2521.45,5239.61L2521.45,5336.41L2562.26,5336.41ZM2639.63,5468.71L2639.63,5371.9L2598.82,5371.9L2598.82,5468.71L2639.63,5468.71ZM3267.06,6118.9L3267.06,6022.1L3226.25,6022.1L3226.25,6118.9L3267.06,6118.9ZM2562.26,5468.71L2562.26,5371.9L2521.45,5371.9L2521.45,5468.71L2562.26,5468.71ZM3208.4,6118.9L3208.4,6022.1L3167.59,6022.1L3167.59,6118.9L3208.4,6118.9ZM2562.26,5598.58L2562.26,5501.78L2521.45,5501.78L2521.45,5598.58L2562.26,5598.58ZM3208.4,6236.68L3208.4,6139.87L3167.59,6139.87L3167.59,6236.68L3208.4,6236.68ZM2426.23,5546.15L2426.23,5450.15L2385.42,5450.15L2385.42,5546.15L2426.23,5546.15ZM2348.86,5546.15L2348.86,5450.15L2308.05,5450.15L2308.05,5546.15L2348.86,5546.15ZM2680.43,5900.29L2680.43,5803.48L2639.63,5803.48L2639.63,5900.29L2680.43,5900.29ZM2603.07,5900.29L2603.07,5803.48L2562.26,5803.48L2562.26,5900.29L2603.07,5900.29ZM2348.86,5679.25L2348.86,5582.45L2308.05,5582.45L2308.05,5679.25L2348.86,5679.25ZM2845.37,6255.23L2845.37,6158.43L2804.56,6158.43L2804.56,6255.23L2845.37,6255.23ZM2603.07,6032.58L2603.07,5935.78L2562.26,5935.78L2562.26,6032.58L2603.07,6032.58ZM2786.71,6255.23L2786.71,6158.43L2745.9,6158.43L2745.9,6255.23L2786.71,6255.23ZM2786.71,6372.2L2786.71,6275.4L2745.9,6275.4L2745.9,6372.2L2786.71,6372.2ZM2151.62,5847.85L2151.62,5751.05L2110.81,5751.05L2110.81,5847.85L2151.62,5847.85ZM2293.6,6014.84L2293.6,5918.03L2252.79,5918.03L2252.79,6014.84L2293.6,6014.84ZM2081.05,5847.85L2081.05,5751.05L2040.25,5751.05L2040.25,5847.85L2081.05,5847.85ZM2235.79,6014.84L2235.79,5918.03L2194.98,5918.03L2194.98,6014.84L2235.79,6014.84ZM2235.79,6132.61L2235.79,6035.81L2194.98,6035.81L2194.98,6132.61L2235.79,6132.61Z" style="fill-rule:nonzero;"/>
        </g>
        <g transform="matrix(0.745732,0,0,0.797504,646.225,2047.01)">
            <path d="M4488.19,4620.47C4488.19,4573.54 4455.49,4535.43 4415.22,4535.43L3143.84,4535.43C3103.56,4535.43 3070.87,4573.54 3070.87,4620.47L3070.87,5300.79C3070.87,5347.72 3103.56,5385.83 3143.84,5385.83L4415.22,5385.83C4455.49,5385.83 4488.19,5347.72 4488.19,5300.79L4488.19,4620.47Z" style="fill-opacity:0;stroke:black;stroke-width:37.78px;"/>
        </g>
    </g>
</svg>
